<svg xmlns="http://www.w3.org/2000/svg" viewBox="0 0 200 240" fill="none" stroke="#1a1a1a" stroke-width="1.6" stroke-linecap="round" stroke-linejoin="round"><path d="M 100 38 L 70 50 L 50 80 L 50 210 L 100 220 L 150 210 L 150 80 L 130 50 Z M 100 38 L 80 110 M 100 38 L 120 110"/><path d="M 100 38 L 80 110 L 75 165 L 65 165 L 50 80 L 70 50 Z" fill="#4a4540"/><path d="M 100 38 L 120 110 L 125 165 L 135 165 L 150 80 L 130 50 Z" fill="#4a4540"/><path d="M 55 70 L 70 70 M 53 85 L 72 85 M 52 100 L 74 100 M 53 115 L 76 115 M 55 130 L 78 130 M 56 145 L 79 145" stroke="#fff" opacity="0.5"/><path d="M 145 70 L 130 70 M 147 85 L 128 85 M 148 100 L 126 100 M 147 115 L 124 115 M 145 130 L 122 130 M 144 145 L 121 145" stroke="#fff" opacity="0.5"/></svg>