<svg xmlns="http://www.w3.org/2000/svg" viewBox="0 0 200 240" fill="none" stroke="#1a1a1a" stroke-width="1.6" stroke-linecap="round" stroke-linejoin="round"><path d="M 75 40 L 75 210 L 125 210 L 125 40 Z"/><rect x="118" y="40" width="10" height="170" fill="#4a4540"/><path d="M 118 50 L 128 50 M 118 60 L 128 60 M 118 70 L 128 70 M 118 80 L 128 80 M 118 90 L 128 90 M 118 100 L 128 100 M 118 110 L 128 110 M 118 120 L 128 120 M 118 130 L 128 130 M 118 140 L 128 140 M 118 150 L 128 150 M 118 160 L 128 160 M 118 170 L 128 170 M 118 180 L 128 180 M 118 190 L 128 190 M 118 200 L 128 200" stroke="#fff" opacity="0.5"/></svg>